<svg data-v-423bf9ae="" xmlns="http://www.w3.org/2000/svg" viewBox="0 0 282.5531919827585 163" class="iconAbove"><!----><!----><!----><g data-v-423bf9ae="" id="97a1a5f8-5490-43c5-98c5-720f92d16301" fill="white" transform="matrix(6.079027426108357,0,0,6.079027426108357,-7.234043383794159,72.1185416159997)"><path d="M1.19 14.88L3.15 14.88L3.15 11.33L6.36 11.33L7.98 10.39L7.98 6.02L6.36 5.08L1.19 5.08ZM3.15 6.76L6.02 6.76L6.02 9.65L3.15 9.65ZM11.44 12.12L13.41 12.12L13.41 13.34L11.44 13.34ZM11.14 14.95L12.42 14.95L13.41 14.38L14.41 14.95L15.33 14.95L15.33 8.82L13.71 7.88L10.22 7.88L10.22 9.52L13.41 9.52L13.41 10.65L11.14 10.65L9.52 11.59L9.52 14.01ZM17.57 14.88L19.53 14.88L19.53 11.33L22.74 11.33L24.36 10.39L24.36 6.02L22.74 5.08L17.57 5.08ZM19.53 6.76L22.40 6.76L22.40 9.65L19.53 9.65ZM30.51 9.52L30.51 7.88L29.09 7.88L28.10 8.46L27.76 7.88L26.18 7.88L26.18 14.88L28.10 14.88L28.10 9.52ZM37.72 13.24L33.82 13.24L33.82 12.10L37.72 12.10L37.72 8.75L36.09 7.81L33.53 7.81L31.91 8.75L31.91 13.94L33.53 14.88L37.72 14.88ZM33.82 9.45L35.80 9.45L35.80 10.65L33.82 10.65ZM39.12 14.88L41.33 14.88L43.39 11.62L45.46 14.88L47.67 14.88L44.49 9.87L47.53 5.08L45.32 5.08L43.39 8.12L41.47 5.08L39.26 5.08L42.28 9.87Z"></path></g><!----><g data-v-423bf9ae="" id="2d15191a-8749-4f65-bea2-76e8a5df9b97" transform="matrix(1.1407800273752857,0,0,1.1407800273752857,84.9259273570616,-11.422808740187556)" stroke="none" fill="white"><path d="M54 12c3 2 6 4 10 6 4 3 5 2 5 7v12c0 5 0 5-4 7-2 1-5 3-7 4v17h6v16c0 1-1 2-2 2s-2-1-2-2V68h-6v-9h-2v28c0 1-1 2-2 2s-2-1-2-2V59h-2v9h-6v13c0 1-1 2-2 2s-2-1-2-2V65h6V48c-2-1-5-3-7-4-5-3-4-2-4-8V25c0-5 1-6 5-8 3-2 6-3 9-5 4-2 5-3 9 0zm2 7l-7-4-7 4-7 4v16l7 4 7 4 7-4 7-4V23l-7-4z"></path></g><!----></svg>